<svg xmlns="http://www.w3.org/2000/svg" viewBox="0 0 500 500"><path d="M0 0h500v500H0V0z"/><path fill="#32de84" d="M354 0h146v500H157.5z"/><path fill="#fff" d="M156.9 321.7c-8.5 8.2-17.8 7-26.7 3-9.5-3.9-18.1-4.1-28.1 0-12.5 5.4-19 3.9-26.6-3-42.3-43.5-36-109.9 12-112.4 11.7.6 19.9 6.5 26.8 7 10.2-2.1 20-8 30.9-7.3 13.1 1 23 6.2 29.5 15.6a34.3 34.3 0 004.2 61.8c-5 13-11.4 25.9-22 35.4zm-43.6-112.9a35.5 35.5 0 0132.5-36.8c2.5 22.3-20.3 39-32.5 36.8z"/><path fill="#fff" d="M413.2 229.7l15.1-26.2a3 3 0 00-1.1-4.1 3 3 0 00-4.2 1L407.7 227a93.3 93.3 0 00-38.9-8.3c-14.1 0-27.3 3-39 8.3l-15.2-26.5a3 3 0 00-4.2-1.1 3 3 0 00-1.1 4.1l15 26.2a90.1 90.1 0 00-46.5 71.3h182a90.1 90.1 0 00-46.6-71.3zM327 275.4a7.6 7.6 0 110-15.2 7.6 7.6 0 010 15.2zm83.6 0a7.6 7.6 0 110-15.2 7.6 7.6 0 010 15.2z" class="st0"/></svg>